<svg width="71" height="70" viewBox="0 0 71 70" fill="none" xmlns="http://www.w3.org/2000/svg">
<path d="M14.6243 41.4672H42.4585V34.6853H14.6243V41.4672ZM14.6243 31.2943H56.3756V24.5123H14.6243V31.2943ZM14.6243 21.1214H56.3756V14.3394H14.6243V21.1214ZM8.69341e-05 69.2843V7.80074C8.69341e-05 5.66539 0.771558 3.84579 2.3145 2.34195C3.8575 0.838104 5.72448 0.0861816 7.91544 0.0861816H63.0846C65.2755 0.0861816 67.1425 0.838104 68.6855 2.34195C70.2285 3.84579 71 5.66539 71 7.80074V48.0059C71 50.1413 70.2285 51.9608 68.6855 53.4647C67.1425 54.9685 65.2755 55.7205 63.0846 55.7205H13.9171L0 69.2844L8.69341e-05 69.2843ZM10.9597 48.0059H63.0846V7.80074H7.91544V50.9085L10.9597 48.0059Z" fill="#FFEC88"/>
</svg>
