<svg width="65" height="55" viewBox="0 0 65 55" fill="none" xmlns="http://www.w3.org/2000/svg">
<path d="M3.47059 17.4062V23.0729L4.17647 24.4896L3 35.4688L5.23529 40.7812L6.52941 44.1458L7.23529 47.8646L9.23529 50.875L14.2941 50.3438L16.8824 49.2812L17.9412 50.875H19.2353L20.2941 53H22.4118V49.2812L23 45.9167V42.375L25.1176 38.4792L54.5294 36.8854L55.5882 32.4583L58.5294 30.6875L60.4118 28.3854L63 26.2604V22.1875V19L58.8824 14.9271L54.5294 11.2083H51.3529L46.7647 7.3125L42.8824 6.78125H38.0588L35.4706 7.3125L31.7059 8.19792L30.0588 8.72917L28.0588 9.96875L25.1176 14.0417L23.8235 11.9167L22.4118 9.96875H20.7647L19.2353 8.19792L17.2353 4.47917L15 2H13.2353L11.3529 5.71875H10.1765L8.05882 7.3125H6.17647L4.17647 9.96875V14.0417L3.47059 17.4062Z" fill="#BDBE7F" stroke="black" stroke-width="4"/>
</svg>
