<svg width="76" height="77" viewBox="0 0 76 77" fill="none" xmlns="http://www.w3.org/2000/svg">
<path d="M38 36.5704C33.1234 36.5704 28.9487 34.7833 25.4759 31.2089C22.0031 27.6345 20.2667 23.3376 20.2667 18.3183C20.2667 13.2989 22.0031 9.00202 25.4759 5.42768C28.9487 1.85325 33.1234 0.06604 38 0.06604C42.8766 0.06604 47.0513 1.85325 50.5241 5.42768C53.9969 9.00202 55.7333 13.2989 55.7333 18.3183C55.7333 23.3376 53.9969 27.6345 50.5241 31.2089C47.0513 34.7833 42.8766 36.5704 38 36.5704ZM0 76.2843V64.6912C0 62.1373 0.673952 59.7722 2.02186 57.596C3.36968 55.4198 5.17059 53.7467 7.42459 52.5766C12.4328 50.0493 17.4849 48.1539 22.5808 46.8903C27.6767 45.6267 32.8164 44.9949 38 44.9949C43.1836 44.9949 48.3233 45.6267 53.4192 46.8903C58.5151 48.1539 63.5671 50.0493 68.5754 52.5766C70.8294 53.7467 72.6303 55.4198 73.9781 57.596C75.326 59.7722 76 62.1373 76 64.6912V76.2843H0ZM7.5999 68.462H68.4001V64.6912C68.4001 63.6348 68.1029 62.657 67.5085 61.7578C66.9142 60.8586 66.1071 60.1248 65.0872 59.5564C60.7221 57.3435 56.2711 55.667 51.7343 54.527C47.1974 53.3871 42.6193 52.8171 38 52.8171C33.3807 52.8171 28.8026 53.3871 24.2657 54.527C19.7289 55.667 15.2779 57.3435 10.9127 59.5564C9.89291 60.1248 9.08583 60.8586 8.49151 61.7578C7.8971 62.657 7.5999 63.6348 7.5999 64.6912V68.462ZM38 28.7482C40.7867 28.7482 43.1722 27.727 45.1567 25.6844C47.1411 23.6419 48.1334 21.1865 48.1334 18.3183C48.1334 15.4501 47.1411 12.9947 45.1567 10.9522C43.1722 8.90963 40.7867 7.88836 38 7.88836C35.2133 7.88836 32.8278 8.90963 30.8433 10.9522C28.8589 12.9947 27.8666 15.4501 27.8666 18.3183C27.8666 21.1865 28.8589 23.6419 30.8433 25.6844C32.8278 27.727 35.2133 28.7482 38 28.7482Z" fill="#FFEC88"/>
</svg>
