<svg width="159" height="76" viewBox="0 0 159 76" fill="none" xmlns="http://www.w3.org/2000/svg">
<path d="M0.000173061 76V67.159C0.000173061 62.334 2.402 58.3713 7.20565 55.2708C12.0093 52.1703 18.2709 50.6201 25.9903 50.6201C27.2666 50.6201 28.5517 50.662 29.8457 50.7457C31.1398 50.8293 32.4426 50.992 33.7542 51.2337C32.4071 53.4928 31.4078 55.8379 30.7564 58.2689C30.105 60.7 29.7794 63.1938 29.7794 65.7504V76H0H0.000173061ZM41.4783 76V66.0294C41.4783 62.6344 42.3868 59.5312 44.2038 56.7198C46.0207 53.9084 48.6396 51.4568 52.0607 49.365C55.4817 47.2733 59.5232 45.7046 64.185 44.6587C68.8468 43.6127 73.9429 43.0898 79.4734 43.0898C85.1102 43.0898 90.2595 43.6127 94.9213 44.6587C99.5831 45.7046 103.625 47.2733 107.046 49.365C110.467 51.4568 113.068 53.9084 114.849 56.7198C116.631 59.5312 117.522 62.6344 117.522 66.0294V76H41.4783ZM129.221 76V65.7713C129.221 63.0436 128.913 60.4734 128.297 58.0604C127.681 55.6475 126.757 53.3719 125.525 51.2337C126.881 50.992 128.177 50.8293 129.413 50.7457C130.65 50.662 131.871 50.6201 133.076 50.6201C140.796 50.6201 147.046 52.1517 151.828 55.215C156.609 58.2782 159 62.2596 159 67.159V76H129.221ZM52.3795 65.123H106.727V64.356C106.018 61.4275 103.075 58.9638 97.8994 56.9651C92.7235 54.9662 86.5904 53.9668 79.5 53.9668C72.4096 53.9668 66.2765 54.9662 61.1005 56.9651C55.9246 58.9638 53.0176 61.4275 52.3795 64.356V65.123ZM25.9727 43.5778C22.7141 43.5778 19.9305 42.3626 17.6217 39.9322C15.313 37.5017 14.1586 34.58 14.1586 31.1669C14.1586 27.7086 15.3171 24.7871 17.6342 22.4025C19.9512 20.0178 22.7366 18.8255 25.9903 18.8255C29.2873 18.8255 32.0835 20.0178 34.379 22.4025C36.6745 24.7871 37.8222 27.7155 37.8222 31.1876C37.8222 34.5577 36.6866 37.4653 34.4154 39.9104C32.1443 42.3553 29.33 43.5778 25.9727 43.5778ZM133.076 43.5778C129.85 43.5778 127.072 42.3553 124.741 39.9104C122.41 37.4653 121.244 34.5577 121.244 31.1876C121.244 27.7155 122.41 24.7871 124.741 22.4025C127.072 20.0178 129.854 18.8255 133.089 18.8255C136.422 18.8255 139.225 20.0178 141.498 22.4025C143.771 24.7871 144.908 27.7086 144.908 31.1669C144.908 34.58 143.774 37.5017 141.506 39.9322C139.239 42.3626 136.428 43.5778 133.076 43.5778ZM79.5235 37.6512C74.5447 37.6512 70.3049 35.8209 66.804 32.1604C63.3032 28.4999 61.5528 24.0549 61.5528 18.8255C61.5528 13.4916 63.2977 9.02051 66.7874 5.4123C70.2771 1.8041 74.5146 0 79.5 0C84.585 0 88.8475 1.80174 92.2874 5.40523C95.7273 9.00873 97.4472 13.474 97.4472 18.801C97.4472 24.0235 95.7295 28.4709 92.2942 32.143C88.8587 35.8151 84.6018 37.6512 79.5235 37.6512ZM79.5332 26.7744C81.6471 26.7744 83.433 25.9981 84.891 24.4456C86.3488 22.8929 87.0777 21.008 87.0777 18.7907C87.0777 16.5734 86.3516 14.7002 84.8993 13.1708C83.4468 11.6415 81.6471 10.8768 79.5 10.8768C77.4083 10.8768 75.6225 11.6386 74.1424 13.1621C72.6623 14.6857 71.9222 16.5734 71.9222 18.8255C71.9222 21.0196 72.6623 22.8929 74.1424 24.4456C75.6225 25.9981 77.4194 26.7744 79.5332 26.7744Z" fill="#FFEC88"/>
</svg>
